<svg width="108" height="32" viewBox="0 0 108 32" fill="none" xmlns="http://www.w3.org/2000/svg">
<path d="M42.9465 2.80469C41.2723 2.80469 40.4352 4.41945 40.4352 7.64897V8.9289C40.4352 10.4626 40.6566 11.667 41.0995 12.5419C41.5423 13.4059 42.1958 13.838 43.0599 13.838C44.248 13.838 45.3389 12.6823 46.3326 10.3708H46.6242L46.5108 13.9838H46.3326C46.2678 13.865 46.2084 13.784 46.1544 13.7408C46.1004 13.6868 46.0194 13.6598 45.9114 13.6598C45.8141 13.6598 45.4253 13.7462 44.7448 13.919C44.0644 14.081 43.3731 14.162 42.671 14.162C40.9105 14.162 39.5441 13.6868 38.572 12.7363C37.6107 11.7858 37.1301 10.36 37.1301 8.45905C37.1301 6.54726 37.6323 5.07291 38.6368 4.03601C39.6521 2.99911 41.0131 2.48066 42.7196 2.48066C43.3785 2.48066 44.0212 2.56707 44.6476 2.73988C45.2849 2.9019 45.6575 2.98291 45.7655 2.98291C45.8736 2.98291 45.9546 2.96131 46.0086 2.9181C46.0626 2.8641 46.122 2.77769 46.1868 2.65887H46.365L46.4946 6.17462H46.203C45.7169 5.08372 45.2147 4.25203 44.6962 3.67958C44.1886 3.09632 43.6053 2.80469 42.9465 2.80469ZM52.8888 10.8083V9.43115C52.8888 8.38344 52.8294 7.62197 52.7106 7.14672C52.6026 6.66067 52.3434 6.41765 51.9329 6.41765C51.6953 6.41765 51.5009 6.48785 51.3497 6.62827C51.2092 6.75788 51.1066 6.9793 51.0418 7.29253C50.9446 7.77858 50.896 8.51846 50.896 9.51215V10.7759C50.896 11.9532 50.9284 12.6607 50.9932 12.8983C51.0688 13.1359 51.1444 13.3303 51.22 13.4815C51.3389 13.7408 51.5711 13.8704 51.9167 13.8704C52.338 13.8704 52.6134 13.6274 52.743 13.1413C52.8402 12.7957 52.8888 12.018 52.8888 10.8083ZM51.8843 14.162C50.5342 14.162 49.5135 13.8164 48.8222 13.1251C48.1309 12.4338 47.7853 11.4455 47.7853 10.1602C47.7853 8.86409 48.1525 7.87039 48.887 7.17912C49.6323 6.47705 50.6746 6.12602 52.0139 6.12602C53.3533 6.12602 54.3524 6.45005 55.0112 7.09812C55.6701 7.73538 55.9995 8.71288 55.9995 10.0306C55.9995 12.7849 54.6278 14.162 51.8843 14.162ZM56.4527 6.28804H60.3572V7.77858C60.7137 6.67687 61.4968 6.12602 62.7065 6.12602C63.927 6.12602 64.6669 6.70928 64.9261 7.87579C65.3041 6.70928 66.098 6.12602 67.3077 6.12602C68.8955 6.12602 69.6894 7.02791 69.6894 8.83169V13.7084H70.5967V14H66.1088V13.7084H66.6759V8.44285C66.6759 7.62197 66.6057 7.14132 66.4652 7.00091C66.4004 6.9361 66.314 6.9037 66.206 6.9037C65.8928 6.9037 65.6174 7.11432 65.3797 7.53556C65.1421 7.9568 65.0233 8.49145 65.0233 9.13952V13.7084H65.6066V14H61.4427V13.7084H62.0098V8.44285C62.0098 7.62197 61.9396 7.14132 61.7992 7.00091C61.7344 6.9361 61.648 6.9037 61.54 6.9037C61.2375 6.9037 60.9621 7.13592 60.7137 7.60037C60.4761 8.05401 60.3572 8.59946 60.3572 9.23673V13.7084H60.9405V14H56.4527V13.7084H57.3437V6.57966H56.4527V6.28804ZM76.7483 9.64177C76.7483 8.52926 76.6943 7.78398 76.5863 7.40595C76.4783 7.01711 76.2677 6.82269 75.9545 6.82269C75.6412 6.82269 75.3604 7.02791 75.112 7.43835C74.8635 7.83799 74.7393 8.37804 74.7393 9.05851V12.0234C74.7393 12.4878 74.8311 12.8821 75.0148 13.2061C75.1984 13.5302 75.4684 13.6922 75.8248 13.6922C76.1813 13.6922 76.4243 13.4545 76.5539 12.9793C76.6835 12.5041 76.7483 11.6724 76.7483 10.4843V9.64177ZM74.7069 6.28804V7.56796C75.1282 6.60667 75.8734 6.12602 76.9428 6.12602C77.8716 6.12602 78.5899 6.46085 79.0976 7.13052C79.616 7.80018 79.8752 8.81549 79.8752 10.1764C79.8752 11.5374 79.5944 12.5419 79.0328 13.1899C78.4819 13.838 77.6502 14.162 76.5377 14.162C76.0193 14.162 75.6304 14.0972 75.3712 13.9676C75.112 13.838 74.9013 13.6382 74.7393 13.3681V17.5644H76.8293V17.856H70.8347V17.5644H71.7258V6.57966H70.8671V6.28804H74.7069ZM84.2479 10.1926H84.7178V8.9451C84.7178 7.919 84.6583 7.23313 84.5395 6.88749C84.4315 6.53106 84.2155 6.35284 83.8915 6.35284C83.697 6.35284 83.5188 6.40685 83.3568 6.51486C83.2056 6.61207 83.13 6.75248 83.13 6.9361C83.13 7.10892 83.1624 7.28713 83.2272 7.47075H83.6322C83.7187 7.69757 83.7619 7.973 83.7619 8.29703C83.7619 8.61027 83.6268 8.88569 83.3568 9.12332C83.0868 9.35014 82.7466 9.46355 82.3361 9.46355C81.4072 9.46355 80.9428 9.01531 80.9428 8.11882C80.9428 6.79028 82.0715 6.12602 84.3289 6.12602C85.6142 6.12602 86.4999 6.34744 86.986 6.79028C87.4828 7.22233 87.7312 8.02161 87.7312 9.18812V12.477C87.7312 13.0387 87.8879 13.3195 88.2011 13.3195C88.5683 13.3195 88.7844 12.7633 88.8492 11.6508L89.0922 11.667C89.049 12.6175 88.8708 13.2709 88.5575 13.6274C88.2443 13.9838 87.7312 14.162 87.0184 14.162C85.7223 14.162 84.977 13.7624 84.7826 12.9631C84.6421 13.3735 84.4315 13.676 84.1507 13.8704C83.8699 14.0648 83.4594 14.162 82.9194 14.162C81.3208 14.162 80.5215 13.5086 80.5215 12.2016C80.5215 11.4347 80.824 10.9109 81.4288 10.6301C82.0445 10.3384 82.9842 10.1926 84.2479 10.1926ZM83.5998 12.1854C83.5998 12.7471 83.6268 13.1089 83.6808 13.2709C83.7457 13.4329 83.8591 13.514 84.0211 13.514C84.1939 13.514 84.3505 13.3789 84.4909 13.1089C84.6421 12.8281 84.7178 12.4446 84.7178 11.9586V10.4518H84.6043C83.9347 10.4518 83.5998 10.9433 83.5998 11.9262V12.1854ZM89.2838 6.28804H93.1884V7.77858C93.3612 7.28173 93.6258 6.88209 93.9823 6.57966C94.3387 6.27723 94.8788 6.12602 95.6024 6.12602C97.2766 6.12602 98.1137 7.02791 98.1137 8.83169V13.7084H99.021V14H94.4359V13.7084H95.1002V8.44285C95.1002 7.79478 95.057 7.37894 94.9706 7.19532C94.8842 7.00091 94.7276 6.9037 94.5007 6.9037C94.1551 6.9037 93.8473 7.13052 93.5772 7.58416C93.318 8.03781 93.1884 8.58866 93.1884 9.23673V13.7084H93.8851V14H89.2838V13.7084H90.1749V6.57966H89.2838V6.28804ZM98.3471 6.57966V6.28804H103.046V6.57966H102.171L103.937 11.9586L105.816 6.57966H104.731V6.28804H107.015V6.57966H106.205L103.175 15.3123C102.819 16.3276 102.419 17.0351 101.976 17.4347C101.533 17.8452 100.993 18.0504 100.356 18.0504C99.7188 18.0504 99.2166 17.9046 98.8493 17.613C98.4821 17.3213 98.2985 16.9487 98.2985 16.495C98.2985 16.0414 98.4173 15.6958 98.6549 15.4581C98.8926 15.2205 99.2058 15.1017 99.5946 15.1017C100.491 15.1017 100.939 15.4743 100.939 16.2196C100.939 16.3816 100.907 16.5761 100.842 16.8029H100.275C100.189 17.0513 100.178 17.2565 100.243 17.4185C100.307 17.5806 100.453 17.6616 100.68 17.6616C101.123 17.6616 101.517 17.4401 101.863 16.9973C102.208 16.5653 102.538 15.901 102.851 15.0045L103.208 14H101.782L99.0114 6.57966H98.3471ZM36.8061 18.6589H41.861V18.9667H40.9213V23.9892H44.1454V18.9667H43.1895V18.6589H48.2606V18.9667H47.3047V29.6922H48.2606V30H43.1895V29.6922H44.1454V24.4104H40.9213V29.6922H41.861V30H36.8061V29.6922H37.7619V18.9667H36.8061V18.6589ZM53.9963 26.8083V25.4311C53.9963 24.3834 53.9369 23.622 53.8181 23.1467C53.7101 22.6607 53.4509 22.4176 53.0404 22.4176C52.8028 22.4176 52.6084 22.4879 52.4572 22.6283C52.3168 22.7579 52.2142 22.9793 52.1494 23.2925C52.0521 23.7786 52.0035 24.5185 52.0035 25.5122V26.7759C52.0035 27.9532 52.0359 28.6607 52.1008 28.8983C52.1764 29.1359 52.252 29.3303 52.3276 29.4815C52.4464 29.7408 52.6786 29.8704 53.0242 29.8704C53.4455 29.8704 53.7209 29.6274 53.8505 29.1413C53.9477 28.7957 53.9963 28.018 53.9963 26.8083ZM52.9918 30.162C51.6417 30.162 50.621 29.8164 49.9297 29.1251C49.2385 28.4338 48.8928 27.4455 48.8928 26.1602C48.8928 24.8641 49.2601 23.8704 49.9945 23.1791C50.7398 22.4771 51.7821 22.126 53.1215 22.126C54.4608 22.126 55.4599 22.4501 56.1187 23.0981C56.7776 23.7354 57.107 24.7129 57.107 26.0306C57.107 28.7849 55.7353 30.162 52.9918 30.162ZM67.0381 30H63.3442L63.1659 28.8173C62.9931 29.2493 62.7339 29.5842 62.3883 29.8218C62.0534 30.0486 61.5512 30.162 60.8815 30.162C59.2073 30.162 58.3703 29.2601 58.3703 27.4563V22.5797H57.463V22.288H61.3838V27.8452C61.3838 28.4933 61.427 28.9199 61.5134 29.1251C61.6106 29.3303 61.7942 29.4329 62.0642 29.4329C62.3451 29.4329 62.5935 29.2655 62.8095 28.9307C63.0255 28.5959 63.1335 28.1314 63.1335 27.5374V22.5797H62.3883V22.288H66.147V29.7084H67.0381V30ZM67.7424 30.162V27.2619H67.9368C68.2176 28.2016 68.5957 28.8605 69.0709 29.2385C69.5462 29.6166 70.1402 29.8056 70.8531 29.8056C71.9548 29.8056 72.5057 29.4545 72.5057 28.7525C72.5057 28.45 72.3706 28.2232 72.1006 28.072C71.6794 27.8344 71.1393 27.6508 70.4805 27.5212C69.746 27.3267 69.1303 27.0675 68.6335 26.7435C68.0394 26.3546 67.7424 25.739 67.7424 24.8965C67.7424 24.054 68.0016 23.3843 68.5201 22.8875C69.0385 22.3798 69.7298 22.126 70.5939 22.126C71.1231 22.126 71.6686 22.2502 72.2302 22.4987C72.4355 22.5851 72.5921 22.6283 72.7001 22.6283C72.8081 22.6283 72.8999 22.5905 72.9755 22.5149C73.0511 22.4392 73.1429 22.2988 73.2509 22.0936H73.4292V24.5725H73.2347C72.6839 23.1683 71.8306 22.4663 70.6749 22.4663C70.1672 22.4663 69.7892 22.5581 69.5408 22.7417C69.2923 22.9145 69.1681 23.1359 69.1681 23.4059C69.1681 23.568 69.2059 23.6976 69.2815 23.7948C69.3572 23.8812 69.4166 23.946 69.4598 23.9892C69.503 24.0324 69.5732 24.081 69.6704 24.135C69.7676 24.1782 69.8486 24.216 69.9134 24.2484C69.9782 24.27 70.0754 24.3024 70.205 24.3456C70.3454 24.3888 70.4481 24.4158 70.5129 24.4266C71.2473 24.6103 71.7766 24.7723 72.1006 24.9127C72.4247 25.0423 72.7325 25.2043 73.0241 25.3987C73.6182 25.8092 73.9152 26.4735 73.9152 27.3915C73.9152 28.2988 73.6452 28.9901 73.1051 29.4653C72.5651 29.9298 71.8252 30.162 70.8855 30.162C70.2158 30.162 69.5678 30.0054 68.9413 29.6922C68.8117 29.6058 68.7091 29.5626 68.6335 29.5626C68.3959 29.5626 68.1636 29.7624 67.9368 30.162H67.7424ZM78.6557 30.162C77.2624 30.162 76.2146 29.8056 75.5126 29.0927C74.8213 28.369 74.4757 27.3699 74.4757 26.0954C74.4757 24.8101 74.8645 23.8272 75.6422 23.1467C76.4307 22.4663 77.4298 22.126 78.6395 22.126C81.0913 22.126 82.2686 23.3573 82.1714 25.82H77.6026V26.4518C77.6026 27.5104 77.7376 28.3096 78.0076 28.8497C78.2777 29.3897 78.7475 29.6598 79.4172 29.6598C80.6701 29.6598 81.491 28.9901 81.8798 27.6508L82.1714 27.6994C81.9662 28.477 81.5936 29.0819 81.0535 29.514C80.5243 29.946 79.725 30.162 78.6557 30.162ZM77.6188 25.496H79.2876V24.7021C79.2876 23.8272 79.2335 23.2331 79.1255 22.9199C79.0283 22.5959 78.8231 22.4338 78.5099 22.4338C78.2074 22.4338 77.9806 22.6067 77.8294 22.9523C77.689 23.2871 77.6188 23.8704 77.6188 24.7021V25.496Z" fill="black"/>
<g clip-path="url(#clip0_169_415)">
<path d="M24.7418 21.9403V11.8761C24.7418 9.20692 23.6815 6.64707 21.7941 4.75967C19.9067 2.87228 17.3468 1.81195 14.6777 1.81195C12.0085 1.81195 9.44862 2.87228 7.56122 4.75967C5.67383 6.64707 4.6135 9.20692 4.6135 11.8761V23.7496H2.80155V11.8761C2.80155 8.72637 4.05278 5.70563 6.27998 3.47843C8.50718 1.25123 11.5279 0 14.6777 0C17.8274 0 20.8481 1.25123 23.0753 3.47843C25.3025 5.70563 26.5538 8.72637 26.5538 11.8761V23.7496H24.7418V21.9403ZM2.80155 25.5642H26.5581V27.3761H2.80155V25.5642ZM0 29.1881H29.3571V31H0V29.1881ZM8.16858 20.1719H6.35663V11.8508C6.36263 9.80265 7.12148 7.82816 8.48876 6.30314C9.85604 4.77813 11.7363 3.80905 13.7717 3.58034V9.52667H11.9597V5.94197C10.879 6.44315 9.9555 7.22986 9.28894 8.21726C8.62238 9.20467 8.23802 10.3553 8.17729 11.5451L8.16945 13.357V18.3599H11.9606V14.2247H13.7726V20.1719H8.16858ZM15.5819 5.40623V3.57686C16.1993 3.64437 16.8072 3.78142 17.3938 3.98542V11.5451H21.1771C21.0992 9.92747 20.4197 8.39734 19.272 7.25476L19.2058 7.1903V4.88007C19.6921 5.19855 20.144 5.56669 20.5543 5.97856C21.3276 6.74936 21.9412 7.66525 22.3597 8.67371C22.7783 9.68216 22.9937 10.7633 22.9935 11.8552V20.1762H21.1815V13.357H17.3956V20.1719H15.5819V5.40623ZM6.42545 21.9403H22.9299V23.7496H6.42545V21.9403Z" fill="black"/>
</g>
<defs>
<clipPath id="clip0_169_415">
<rect width="29.3544" height="31" fill="white"/>
</clipPath>
</defs>
</svg>
